<svg width="24" height="24" viewBox="0 0 24 24" fill="none" xmlns="http://www.w3.org/2000/svg">
<path fill-rule="evenodd" clip-rule="evenodd" d="M9.94436 3.25H14.0564C15.8944 3.25 17.3504 3.25 18.4894 3.403C19.6614 3.561 20.6104 3.893 21.3594 4.641C22.1074 5.39 22.4394 6.339 22.5974 7.511C22.6874 8.184 22.7244 8.967 22.7394 9.874C22.7518 9.95007 22.7531 10.0275 22.7434 10.104C22.7494 10.6693 22.7517 11.2827 22.7504 11.944V12C22.7504 12.1989 22.6713 12.3897 22.5307 12.5303C22.39 12.671 22.1993 12.75 22.0004 12.75C21.8015 12.75 21.6107 12.671 21.47 12.5303C21.3294 12.3897 21.2504 12.1989 21.2504 12C21.2504 11.5547 21.2497 11.138 21.2484 10.75H2.75236C2.75036 11.138 2.7497 11.5547 2.75036 12C2.75036 13.907 2.75236 15.262 2.89036 16.29C3.02536 17.295 3.27936 17.875 3.70236 18.298C4.12536 18.721 4.70536 18.975 5.71136 19.11C6.73936 19.248 8.09336 19.25 10.0004 19.25H14.0004C14.1993 19.25 14.39 19.329 14.5307 19.4697C14.6713 19.6103 14.7504 19.8011 14.7504 20C14.7504 20.1989 14.6713 20.3897 14.5307 20.5303C14.39 20.671 14.1993 20.75 14.0004 20.75H9.94436C8.10636 20.75 6.65036 20.75 5.51136 20.597C4.33936 20.439 3.39036 20.107 2.64136 19.359C1.89336 18.61 1.56136 17.661 1.40336 16.489C1.25036 15.349 1.25036 13.894 1.25036 12.056V11.944C1.24903 11.2827 1.25136 10.6693 1.25736 10.104C1.24728 10.0276 1.24829 9.95012 1.26036 9.874C1.27636 8.967 1.31336 8.184 1.40336 7.511C1.56136 6.339 1.89336 5.39 2.64136 4.641C3.39036 3.893 4.33936 3.561 5.51136 3.403C6.65136 3.25 8.10636 3.25 9.94436 3.25ZM2.77636 9.25H21.2244C21.2112 8.73513 21.1731 8.2212 21.1104 7.71C20.9754 6.705 20.7214 6.125 20.2984 5.702C19.8754 5.279 19.2954 5.025 18.2894 4.89C17.2624 4.752 15.9074 4.75 14.0004 4.75H10.0004C8.09336 4.75 6.73936 4.752 5.71036 4.89C4.70536 5.025 4.12536 5.279 3.70236 5.702C3.27936 6.125 3.02536 6.705 2.89036 7.71C2.83036 8.155 2.79636 8.662 2.77636 9.249M18.4704 13.469C18.611 13.3285 18.8016 13.2497 19.0004 13.2497C19.1991 13.2497 19.3897 13.3285 19.5304 13.469L21.5304 15.469C21.6041 15.5377 21.6632 15.6205 21.7041 15.7125C21.7451 15.8045 21.7672 15.9038 21.769 16.0045C21.7707 16.1052 21.7522 16.2052 21.7145 16.2986C21.6768 16.392 21.6206 16.4768 21.5494 16.548C21.4782 16.6193 21.3933 16.6754 21.3 16.7131C21.2066 16.7508 21.1065 16.7694 21.0058 16.7676C20.9051 16.7658 20.8058 16.7438 20.7138 16.7028C20.6218 16.6618 20.539 16.6027 20.4704 16.529L19.7504 15.809V20C19.7504 20.1989 19.6713 20.3897 19.5307 20.5303C19.39 20.671 19.1993 20.75 19.0004 20.75C18.8015 20.75 18.6107 20.671 18.47 20.5303C18.3294 20.3897 18.2504 20.1989 18.2504 20V15.81L17.5304 16.53C17.4617 16.6037 17.3789 16.6628 17.2869 16.7038C17.1949 16.7448 17.0956 16.7668 16.9949 16.7686C16.8942 16.7704 16.7942 16.7518 16.7008 16.7141C16.6074 16.6764 16.5225 16.6203 16.4513 16.549C16.3801 16.4778 16.324 16.393 16.2862 16.2996C16.2485 16.2062 16.23 16.1062 16.2318 16.0055C16.2335 15.9048 16.2556 15.8055 16.2966 15.7135C16.3376 15.6215 16.3967 15.5387 16.4704 15.47L18.4704 13.469ZM5.25036 16C5.25036 15.8011 5.32938 15.6103 5.47003 15.4697C5.61069 15.329 5.80145 15.25 6.00036 15.25H10.0004C10.1993 15.25 10.39 15.329 10.5307 15.4697C10.6713 15.6103 10.7504 15.8011 10.7504 16C10.7504 16.1989 10.6713 16.3897 10.5307 16.5303C10.39 16.671 10.1993 16.75 10.0004 16.75H6.00036C5.80145 16.75 5.61069 16.671 5.47003 16.5303C5.32938 16.3897 5.25036 16.1989 5.25036 16ZM11.7504 16C11.7504 15.8011 11.8294 15.6103 11.97 15.4697C12.1107 15.329 12.3015 15.25 12.5004 15.25H13.0004C13.1993 15.25 13.39 15.329 13.5307 15.4697C13.6713 15.6103 13.7504 15.8011 13.7504 16C13.7504 16.1989 13.6713 16.3897 13.5307 16.5303C13.39 16.671 13.1993 16.75 13.0004 16.75H12.5004C12.3015 16.75 12.1107 16.671 11.97 16.5303C11.8294 16.3897 11.7504 16.1989 11.7504 16Z" fill="#98A4AE"/>
</svg>
