<svg width="28" height="28" viewBox="0 0 28 28" fill="none" xmlns="http://www.w3.org/2000/svg">
<path d="M0 6C0 2.68629 2.68629 0 6 0H22C25.3137 0 28 2.68629 28 6V22C28 25.3137 25.3137 28 22 28H6C2.68629 28 0 25.3137 0 22V6Z" fill="#FFCCDB"/>
<path fill-rule="evenodd" clip-rule="evenodd" d="M12.287 6.70837H15.7136C17.2453 6.70837 18.4586 6.70837 19.4078 6.83587C20.3845 6.96754 21.1753 7.24421 21.7995 7.86754C22.4228 8.49171 22.6995 9.28254 22.8311 10.2592C22.9061 10.82 22.937 11.4725 22.9495 12.2284C22.9598 12.2918 22.9609 12.3563 22.9528 12.42C22.9578 12.8912 22.9597 13.4023 22.9586 13.9534V14.0467C22.9586 15.5784 22.9586 16.7917 22.8311 17.7409C22.6995 18.7175 22.4228 19.5084 21.7995 20.1325C21.1753 20.7559 20.3845 21.0325 19.4078 21.1642C18.4578 21.2917 17.2453 21.2917 15.7136 21.2917H12.287C10.7553 21.2917 9.54196 21.2917 8.59279 21.1642C7.61613 21.0325 6.82529 20.7559 6.20113 20.1325C5.57779 19.5084 5.30113 18.7175 5.16946 17.7409C5.04196 16.7909 5.04196 15.5784 5.04196 14.0467V13.9534C5.04085 13.4023 5.04279 12.8912 5.04779 12.42C5.03939 12.3564 5.04023 12.2918 5.05029 12.2284C5.06363 11.4725 5.09446 10.82 5.16946 10.2592C5.30113 9.28254 5.57779 8.49171 6.20113 7.86754C6.82529 7.24421 7.61613 6.96754 8.59279 6.83587C9.54279 6.70837 10.7553 6.70837 12.287 6.70837ZM6.29363 12.9584C6.29252 13.2817 6.29196 13.6289 6.29196 14C6.29196 15.5892 6.29363 16.7184 6.40863 17.575C6.52113 18.4125 6.73279 18.8959 7.08529 19.2484C7.43779 19.6009 7.92113 19.8125 8.75946 19.925C9.61613 20.04 10.7445 20.0417 12.3336 20.0417H15.667C17.2561 20.0417 18.3853 20.04 19.242 19.925C20.0795 19.8125 20.5628 19.6009 20.9153 19.2484C21.2678 18.8959 21.4795 18.4125 21.592 17.5742C21.707 16.7175 21.7086 15.5892 21.7086 14C21.7086 13.6289 21.7081 13.2817 21.707 12.9584H6.29363ZM21.687 11.7084H6.31363C6.33029 11.2192 6.35863 10.7967 6.40863 10.425C6.52113 9.58754 6.73279 9.10421 7.08529 8.75171C7.43779 8.39921 7.92113 8.18754 8.75946 8.07504C9.61613 7.96004 10.7445 7.95837 12.3336 7.95837H15.667C17.2561 7.95837 18.3853 7.96004 19.242 8.07504C20.0795 8.18754 20.5628 8.39921 20.9153 8.75171C21.2678 9.10421 21.4795 9.58754 21.592 10.4259C21.642 10.7967 21.6703 11.2192 21.687 11.7084ZM8.37529 17.3334C8.37529 17.1676 8.44114 17.0086 8.55835 16.8914C8.67556 16.7742 8.83453 16.7084 9.00029 16.7084H12.3336C12.4994 16.7084 12.6584 16.7742 12.7756 16.8914C12.8928 17.0086 12.9586 17.1676 12.9586 17.3334C12.9586 17.4991 12.8928 17.6581 12.7756 17.7753C12.6584 17.8925 12.4994 17.9584 12.3336 17.9584H9.00029C8.83453 17.9584 8.67556 17.8925 8.55835 17.7753C8.44114 17.6581 8.37529 17.4991 8.37529 17.3334ZM13.792 17.3334C13.792 17.1676 13.8578 17.0086 13.975 16.8914C14.0922 16.7742 14.2512 16.7084 14.417 16.7084H15.667C15.8327 16.7084 15.9917 16.7742 16.1089 16.8914C16.2261 17.0086 16.292 17.1676 16.292 17.3334C16.292 17.4991 16.2261 17.6581 16.1089 17.7753C15.9917 17.8925 15.8327 17.9584 15.667 17.9584H14.417C14.2512 17.9584 14.0922 17.8925 13.975 17.7753C13.8578 17.6581 13.792 17.4991 13.792 17.3334Z" fill="#FF6692"/>
</svg>
