<svg width="38" height="38" viewBox="0 0 38 38" fill="none" xmlns="http://www.w3.org/2000/svg">
<circle cx="19" cy="19" r="19" fill="#FFF9E5"/>
<path d="M17.5 25.75H20.5C20.5 26.575 19.825 27.25 19 27.25C18.175 27.25 17.5 26.575 17.5 25.75ZM25.75 24.25V25H12.25V24.25L13.75 22.75V18.25C13.75 15.925 15.25 13.9 17.5 13.225V13C17.5 12.175 18.175 11.5 19 11.5C19.825 11.5 20.5 12.175 20.5 13V13.225C22.75 13.9 24.25 15.925 24.25 18.25V22.75L25.75 24.25ZM22.75 18.25C22.75 16.15 21.1 14.5 19 14.5C16.9 14.5 15.25 16.15 15.25 18.25V23.5H22.75V18.25Z" fill="#FFD648"/>
</svg>
