<svg width="24" height="24" viewBox="0 0 24 24" fill="none" xmlns="http://www.w3.org/2000/svg">
<path fill-rule="evenodd" clip-rule="evenodd" d="M12.0005 4.75C10.9405 4.75 10.0905 5.078 8.06653 5.888L5.25753 7.01C4.24753 7.414 3.54753 7.696 3.09353 7.934L2.97353 8L3.09353 8.065C3.54753 8.303 4.24753 8.585 5.25753 8.989L8.06653 10.112C10.0915 10.922 10.9405 11.25 12.0005 11.25C13.0605 11.25 13.9105 10.922 15.9345 10.112L18.7435 8.989C19.7535 8.585 20.4535 8.303 20.9075 8.065L21.0275 8L20.9075 7.935C20.4535 7.697 19.7535 7.415 18.7435 7.011L15.9345 5.888C13.9105 5.078 13.0605 4.75 12.0005 4.75ZM7.62453 4.449C9.50153 3.698 10.6215 3.25 12.0005 3.25C13.3795 3.25 14.4995 3.698 16.3765 4.449L16.4915 4.495L19.3455 5.637C20.3005 6.019 21.0735 6.327 21.6045 6.606C21.8725 6.746 22.1325 6.906 22.3335 7.099C22.5395 7.297 22.7505 7.597 22.7505 8C22.7505 8.403 22.5405 8.703 22.3335 8.901C22.1335 9.094 21.8735 9.253 21.6035 9.394C21.0735 9.672 20.3005 9.981 19.3455 10.364L16.4915 11.504L16.3765 11.551C14.4995 12.302 13.3795 12.75 12.0005 12.75C10.6215 12.75 9.50153 12.302 7.62453 11.551L7.50953 11.505L4.65553 10.363C3.70053 9.981 2.92753 9.673 2.39653 9.394C2.13198 9.26402 1.88666 9.09812 1.66753 8.901C1.46153 8.703 1.25053 8.403 1.25053 8C1.25053 7.597 1.46053 7.297 1.66753 7.099C1.86753 6.906 2.12753 6.747 2.39753 6.606C2.92753 6.328 3.70053 6.019 4.65553 5.636L7.50953 4.496L7.62453 4.449ZM2.50053 11.44L2.50453 11.443L2.52853 11.464C2.55253 11.484 2.59186 11.5153 2.64653 11.558C2.75553 11.642 2.92453 11.766 3.15453 11.915C3.61453 12.214 4.31553 12.611 5.25853 12.989L8.06753 14.112C10.0925 14.922 10.9415 15.25 12.0015 15.25C13.0615 15.25 13.9115 14.922 15.9355 14.112L18.7445 12.989C19.4795 12.7011 20.1842 12.3413 20.8485 11.915C21.073 11.7687 21.2899 11.6111 21.4985 11.443L21.5015 11.441L21.5025 11.44C21.651 11.3088 21.8454 11.2416 22.0432 11.2532C22.241 11.2648 22.4262 11.3542 22.5583 11.5019C22.6904 11.6496 22.7587 11.8436 22.7482 12.0414C22.7378 12.2393 22.6495 12.425 22.5025 12.558L22.0005 12L22.5005 12.558V12.56L22.4985 12.561L22.4935 12.565L22.4795 12.577L22.4345 12.616C22.1879 12.8154 21.9308 13.0017 21.6645 13.174C20.9174 13.6516 20.1257 14.0554 19.3005 14.38L16.4915 15.504L16.3765 15.55C14.4995 16.301 13.3795 16.749 12.0005 16.749C10.6215 16.749 9.50153 16.301 7.62453 15.55L7.50953 15.504L4.70053 14.38C3.87566 14.0551 3.08429 13.6508 2.33753 13.173C2.07087 13.0007 1.81351 12.8145 1.56653 12.615L1.52153 12.576L1.50753 12.564L1.50253 12.56L1.50153 12.558H1.50053L2.00053 12L1.50053 12.559C1.35214 12.4265 1.26245 12.2405 1.2512 12.0419C1.23995 11.8433 1.30805 11.6484 1.44053 11.5C1.573 11.3516 1.759 11.2619 1.9576 11.2507C2.1562 11.2394 2.35214 11.3075 2.50053 11.44ZM21.4995 15.441L21.5015 15.44C21.65 15.3088 21.8444 15.2416 22.0422 15.2532C22.24 15.2648 22.4252 15.3542 22.5573 15.5019C22.6894 15.6496 22.7577 15.8436 22.7472 16.0415C22.7368 16.2393 22.6485 16.425 22.5015 16.558L22.5005 16.56L22.4985 16.561L22.4935 16.565L22.4795 16.577C22.4689 16.587 22.4539 16.5997 22.4345 16.615C22.1879 16.8144 21.9308 17.0007 21.6645 17.173C20.9175 17.6512 20.1258 18.0558 19.3005 18.381L16.4915 19.505L16.3765 19.551C14.4995 20.302 13.3795 20.75 12.0005 20.75C10.6215 20.75 9.50153 20.302 7.62453 19.551L7.50953 19.505L4.70053 18.38C3.87566 18.0551 3.08429 17.6508 2.33753 17.173C2.07087 17.0007 1.81351 16.8145 1.56653 16.615L1.52153 16.576L1.50753 16.564L1.50253 16.56L1.50153 16.558H1.50053C1.3536 16.425 1.26527 16.2403 1.25482 16.0424C1.24437 15.8446 1.31266 15.6506 1.44477 15.5029C1.57687 15.3552 1.76206 15.2658 1.95988 15.2542C2.1577 15.2426 2.35207 15.3098 2.50053 15.441L2.50353 15.443L2.52753 15.464C2.55153 15.484 2.59086 15.5153 2.64553 15.558C2.75453 15.642 2.92353 15.766 3.15353 15.915C3.61353 16.214 4.31453 16.611 5.25753 16.989L8.06653 18.112C10.0915 18.922 10.9405 19.25 12.0005 19.25C13.0605 19.25 13.9105 18.922 15.9345 18.112L18.7435 16.989C19.4785 16.7011 20.1832 16.3413 20.8475 15.915C21.072 15.7687 21.2889 15.6111 21.4975 15.443L21.4995 15.441Z" fill="white"/>
</svg>
