<svg width="20" height="20" viewBox="0 0 20 20" fill="none" xmlns="http://www.w3.org/2000/svg">
<g clip-path="url(#clip0_347_49149)">
<path d="M0.800781 15.6252C1.42507 14.6653 2.27922 13.8766 3.28568 13.3305C4.29214 12.7845 5.41903 12.4985 6.56406 12.4985C7.70909 12.4985 8.83599 12.7845 9.84245 13.3305C10.8489 13.8766 11.7031 14.6653 12.3273 15.6252" stroke="#635BFF" stroke-width="1.5" stroke-linecap="round" stroke-linejoin="round"/>
<path d="M13.4375 12.5C14.5825 12.4993 15.7095 12.7849 16.716 13.3306C17.7225 13.8764 18.5767 14.6651 19.2008 15.625" stroke="#635BFF" stroke-width="1.5" stroke-linecap="round" stroke-linejoin="round"/>
<path d="M6.5625 12.5C8.80616 12.5 10.625 10.6812 10.625 8.4375C10.625 6.19384 8.80616 4.375 6.5625 4.375C4.31884 4.375 2.5 6.19384 2.5 8.4375C2.5 10.6812 4.31884 12.5 6.5625 12.5Z" stroke="#635BFF" stroke-width="1.5" stroke-linecap="round" stroke-linejoin="round"/>
<path d="M11.9297 4.66406C12.4854 4.44242 13.0832 4.34625 13.6804 4.38244C14.2776 4.41862 14.8594 4.58626 15.3843 4.87338C15.9092 5.1605 16.3642 5.56001 16.7168 6.04337C17.0694 6.52672 17.3108 7.08198 17.4239 7.66948C17.537 8.25698 17.519 8.86221 17.3711 9.44192C17.2232 10.0216 16.949 10.5615 16.5682 11.023C16.1875 11.4845 15.7095 11.8562 15.1684 12.1115C14.6274 12.3668 14.0366 12.4995 13.4383 12.5" stroke="#635BFF" stroke-width="1.5" stroke-linecap="round" stroke-linejoin="round"/>
</g>
<defs>
<clipPath id="clip0_347_49149">
<rect width="20" height="20" fill="white"/>
</clipPath>
</defs>
</svg>
