<svg width="20" height="20" viewBox="0 0 20 20" fill="none" xmlns="http://www.w3.org/2000/svg">
<path d="M18.3327 18.3334H9.99935C6.07098 18.3334 4.10679 18.3334 2.8864 17.113C1.66602 15.8926 1.66602 13.9284 1.66602 10V1.66669" stroke="#635BFF" stroke-width="1.25" stroke-linecap="round"/>
<path d="M15.8335 5.83331L13.2351 9.10531C12.8371 9.60651 12.6381 9.85711 12.4096 9.97925C12.0584 10.167 11.6386 10.1762 11.2795 10.0038C11.0459 9.89175 10.8362 9.65005 10.4168 9.16663C9.99737 8.68323 9.78765 8.44152 9.5541 8.32944C9.19499 8.1571 8.77525 8.16623 8.42397 8.35402C8.19551 8.47615 7.9965 8.72674 7.59849 9.22792L5 12.5" stroke="#635BFF" stroke-width="1.25" stroke-linecap="round"/>
</svg>
