<svg width="136" height="40" viewBox="0 0 136 40" fill="none" xmlns="http://www.w3.org/2000/svg">
<rect width="135" height="40" fill="white"/>
<path d="M132.07 27.5446V22.0866C132.07 21.8226 132.056 21.4873 132.027 21.0806C131.999 20.6668 131.909 20.253 131.76 19.8392C131.61 19.4254 131.364 19.0794 131.021 18.8011C130.686 18.5229 130.208 18.3837 129.587 18.3837C129.337 18.3837 129.07 18.423 128.784 18.5015C128.499 18.5799 128.231 18.7333 127.982 18.9616C127.732 19.1828 127.525 19.511 127.361 19.9462C127.204 20.3814 127.126 20.9593 127.126 21.6799L125.456 20.888C125.456 19.9748 125.642 19.1186 126.013 18.3195C126.384 17.5204 126.94 16.8748 127.682 16.3825C128.431 15.8902 129.373 15.644 130.507 15.644C131.414 15.644 132.152 15.7974 132.723 16.1042C133.294 16.411 133.736 16.7998 134.05 17.2707C134.371 17.7416 134.599 18.2339 134.735 18.7476C134.87 19.2542 134.952 19.7179 134.981 20.1388C135.009 20.5598 135.024 20.8666 135.024 21.0592V27.5446H132.07ZM124.172 27.5446V12.1338H126.762V20.0532H127.126V27.5446H124.172Z" fill="#635BFF"/>
<path d="M117.432 27.8653C115.976 27.8653 114.799 27.5371 113.9 26.8807C113.008 26.2172 112.466 25.2825 112.273 24.0768L115.249 23.6273C115.37 24.1695 115.637 24.594 116.051 24.9008C116.472 25.2076 117.004 25.361 117.646 25.361C118.174 25.361 118.58 25.2611 118.866 25.0614C119.151 24.8544 119.294 24.5691 119.294 24.2052C119.294 23.9769 119.237 23.795 119.123 23.6594C119.009 23.5167 118.752 23.3776 118.352 23.242C117.96 23.1065 117.346 22.9281 116.511 22.7069C115.57 22.4643 114.817 22.1932 114.253 21.8936C113.69 21.5939 113.283 21.2372 113.033 20.8234C112.784 20.4024 112.659 19.8959 112.659 19.3037C112.659 18.5617 112.848 17.9196 113.226 17.3774C113.604 16.828 114.136 16.407 114.82 16.1145C115.513 15.8149 116.326 15.665 117.261 15.665C118.167 15.665 118.969 15.8042 119.668 16.0824C120.368 16.3607 120.931 16.7566 121.359 17.2703C121.795 17.784 122.062 18.3905 122.162 19.0897L119.187 19.6248C119.137 19.1967 118.951 18.8578 118.63 18.6081C118.309 18.3584 117.874 18.2121 117.325 18.1693C116.79 18.1336 116.358 18.205 116.03 18.3833C115.709 18.5617 115.548 18.8185 115.548 19.1539C115.548 19.3536 115.616 19.5213 115.752 19.6569C115.894 19.7924 116.183 19.9315 116.618 20.0742C117.061 20.2169 117.731 20.4024 118.63 20.6307C119.508 20.8591 120.211 21.1266 120.739 21.4334C121.274 21.733 121.663 22.0969 121.905 22.525C122.148 22.9459 122.269 23.4561 122.269 24.0554C122.269 25.2397 121.841 26.1708 120.985 26.8486C120.129 27.5264 118.944 27.8653 117.432 27.8653Z" fill="#635BFF"/>
<path d="M104.079 27.8653C103.252 27.8653 102.549 27.7083 101.971 27.3944C101.4 27.0733 100.965 26.6488 100.665 26.1208C100.373 25.5857 100.227 24.9971 100.227 24.355C100.227 23.8199 100.309 23.3312 100.473 22.8889C100.637 22.4465 100.901 22.0577 101.265 21.7223C101.636 21.3799 102.132 21.0945 102.752 20.8662C103.18 20.7092 103.69 20.5701 104.283 20.4488C104.875 20.3275 105.545 20.2134 106.295 20.1063C107.044 19.9922 107.868 19.8673 108.767 19.7318L107.718 20.3097C107.718 19.6248 107.554 19.1218 107.226 18.8007C106.897 18.4797 106.348 18.3191 105.578 18.3191C105.149 18.3191 104.704 18.4226 104.24 18.6295C103.776 18.8364 103.451 19.2038 103.266 19.7318L100.633 18.897C100.926 17.941 101.475 17.1633 102.281 16.564C103.088 15.9647 104.186 15.665 105.578 15.665C106.598 15.665 107.504 15.822 108.296 16.1359C109.088 16.4498 109.687 16.9921 110.094 17.7626C110.322 18.1907 110.458 18.6188 110.5 19.0469C110.543 19.4749 110.565 19.953 110.565 20.4809V27.5442H108.018V25.1684L108.381 25.6607C107.818 26.4383 107.208 27.002 106.551 27.3516C105.902 27.694 105.078 27.8653 104.079 27.8653ZM104.7 25.575C105.235 25.575 105.685 25.4823 106.048 25.2968C106.419 25.1042 106.712 24.8866 106.926 24.644C107.147 24.4014 107.297 24.1981 107.375 24.034C107.525 23.72 107.611 23.3562 107.632 22.9424C107.661 22.5214 107.675 22.1718 107.675 21.8936L108.531 22.1076C107.668 22.2503 106.969 22.3716 106.434 22.4715C105.899 22.5642 105.467 22.6498 105.139 22.7283C104.811 22.8068 104.522 22.8924 104.272 22.9852C103.987 23.0993 103.755 23.2242 103.576 23.3597C103.405 23.4882 103.277 23.6309 103.191 23.7878C103.113 23.9448 103.073 24.1196 103.073 24.3122C103.073 24.5762 103.137 24.8045 103.266 24.9971C103.401 25.1826 103.591 25.3253 103.833 25.4252C104.076 25.5251 104.365 25.575 104.7 25.575Z" fill="#635BFF"/>
<path d="M86.0977 27.5446V12.1338H91.0848C91.2061 12.1338 91.4558 12.1374 91.8339 12.1445C92.212 12.1516 92.5759 12.1766 92.9255 12.2194C94.1669 12.3692 95.2193 12.8009 96.0826 13.5143C96.9459 14.2278 97.6023 15.1339 98.0517 16.2326C98.5012 17.3314 98.726 18.5336 98.726 19.8392C98.726 21.1448 98.5012 22.347 98.0517 23.4458C97.6023 24.5445 96.9459 25.4506 96.0826 26.164C95.2193 26.8775 94.1669 27.3092 92.9255 27.459C92.5759 27.5018 92.212 27.5268 91.8339 27.5339C91.4558 27.541 91.2061 27.5446 91.0848 27.5446H86.0977ZM89.0514 24.8049H91.0848C91.2774 24.8049 91.5378 24.8013 91.866 24.7942C92.1942 24.7799 92.4903 24.7478 92.7543 24.6979C93.4249 24.5623 93.9707 24.2484 94.3917 23.7561C94.8197 23.2638 95.1337 22.6716 95.3334 21.9796C95.5403 21.2875 95.6438 20.5741 95.6438 19.8392C95.6438 19.0687 95.5368 18.3374 95.3227 17.6453C95.1158 16.9532 94.7983 16.3682 94.3703 15.8902C93.9422 15.4122 93.4035 15.1089 92.7543 14.9805C92.4903 14.9234 92.1942 14.8913 91.866 14.8842C91.5378 14.8771 91.2774 14.8735 91.0848 14.8735H89.0514V24.8049Z" fill="#635BFF"/>
<path d="M83.1175 27.5451C82.3185 27.6949 81.5336 27.7591 80.7631 27.7377C79.9997 27.7234 79.3148 27.5914 78.7083 27.3417C78.109 27.0849 77.6524 26.6746 77.3385 26.111C77.0531 25.583 76.9033 25.0479 76.889 24.5057C76.8747 23.9563 76.8676 23.3356 76.8676 22.6436V12.7764H79.7785V22.4723C79.7785 22.9218 79.7821 23.3285 79.7892 23.6924C79.8035 24.0491 79.8784 24.3345 80.014 24.5485C80.2708 24.9552 80.6811 25.1764 81.2447 25.212C81.8083 25.2477 82.4326 25.2192 83.1175 25.1264V27.5451ZM74.8984 18.2344V15.987H83.1175V18.2344H74.8984Z" fill="#635BFF"/>
<path d="M67.341 27.8653C66.5134 27.8653 65.8106 27.7083 65.2327 27.3944C64.6619 27.0733 64.2267 26.6488 63.9271 26.1208C63.6345 25.5857 63.4883 24.9971 63.4883 24.355C63.4883 23.8199 63.5703 23.3312 63.7344 22.8889C63.8985 22.4465 64.1625 22.0577 64.5264 21.7223C64.8974 21.3799 65.3932 21.0945 66.0139 20.8662C66.442 20.7092 66.9521 20.5701 67.5443 20.4488C68.1365 20.3275 68.8072 20.2134 69.5563 20.1063C70.3054 19.9922 71.1295 19.8673 72.0284 19.7318L70.9796 20.3097C70.9796 19.6248 70.8156 19.1218 70.4874 18.8007C70.1592 18.4797 69.6098 18.3191 68.8393 18.3191C68.4112 18.3191 67.9653 18.4226 67.5015 18.6295C67.0378 18.8364 66.7131 19.2038 66.5276 19.7318L63.895 18.897C64.1875 17.941 64.7368 17.1633 65.5431 16.564C66.3493 15.9647 67.448 15.665 68.8393 15.665C69.8595 15.665 70.7656 15.822 71.5576 16.1359C72.3495 16.4498 72.9488 16.9921 73.3555 17.7626C73.5838 18.1907 73.7193 18.6188 73.7622 19.0469C73.805 19.4749 73.8264 19.953 73.8264 20.4809V27.5442H71.2793V25.1684L71.6432 25.6607C71.0795 26.4383 70.4695 27.002 69.8131 27.3516C69.1639 27.694 68.3398 27.8653 67.341 27.8653ZM67.9617 25.575C68.4968 25.575 68.9463 25.4823 69.3101 25.2968C69.6811 25.1042 69.9737 24.8866 70.1877 24.644C70.4089 24.4014 70.5587 24.1981 70.6372 24.034C70.787 23.72 70.8726 23.3562 70.894 22.9424C70.9226 22.5214 70.9368 22.1718 70.9368 21.8936L71.793 22.1076C70.9297 22.2503 70.2305 22.3716 69.6954 22.4715C69.1603 22.5642 68.7287 22.6498 68.4005 22.7283C68.0723 22.8068 67.7833 22.8924 67.5336 22.9852C67.2482 23.0993 67.0164 23.2242 66.838 23.3597C66.6668 23.4882 66.5383 23.6309 66.4527 23.7878C66.3742 23.9448 66.335 24.1196 66.335 24.3122C66.335 24.5762 66.3992 24.8045 66.5276 24.9971C66.6632 25.1826 66.8523 25.3253 67.0948 25.4252C67.3374 25.5251 67.6264 25.575 67.9617 25.575Z" fill="#635BFF"/>
<path d="M46.1445 27.5446V12.1338H48.7558L53.8499 22.3649L58.9441 12.1338H61.5553V27.5446H58.837V18.3409L54.3636 27.5446H53.3362L48.8628 18.3409V27.5446H46.1445Z" fill="#635BFF"/>
<g clip-path="url(#clip0_2012_109089)">
<path d="M0.51799 29.7006L13.8961 6.45466C14.5925 5.2431 15.8882 4.5 17.2892 4.5C19.8644 4.5 21.7431 6.94737 21.0629 9.42704L17.4997 22.4958L18.7225 23.2147L22.2209 17.3265C22.9092 16.1634 24.1726 15.4607 25.5249 15.4849C27.679 15.5172 29.3634 17.3507 29.2258 19.4911L28.667 28.0206V28.0448C29.3148 27.6167 30.0923 27.3663 30.9264 27.3663C33.1776 27.3663 35.0078 29.1918 35.0078 31.4372C35.0078 33.6826 33.1776 35.5081 30.9264 35.5081C28.6751 35.5081 26.8449 33.6826 26.8449 31.4372C26.8449 31.1165 26.853 31.106 26.8773 30.9445V30.9122C26.8935 30.8072 26.9097 30.7103 26.9259 30.6053L27.7357 25.6701L26.8125 25.0563L21.7107 33.5615C20.9981 34.7488 19.7105 35.4838 18.3176 35.4838C15.7667 35.4838 13.888 33.1172 14.4629 30.6456L17.4916 17.698L16.5603 17.3911L7.22322 33.5534C6.53488 34.7488 5.25538 35.4838 3.87061 35.4838C0.898602 35.4838 -0.963963 32.2772 0.51799 29.7006Z" fill="#635BFF"/>
</g>
<defs>
<clipPath id="clip0_2012_109089">
<rect width="35" height="31" fill="white" transform="matrix(-1 0 0 1 35 4.5)"/>
</clipPath>
</defs>
</svg>
