<svg width="40" height="40" viewBox="0 0 40 40" fill="none" xmlns="http://www.w3.org/2000/svg">
<rect width="40" height="40" rx="12" fill="#FF6692"/>
<path d="M30.5004 20.0001V26.0001C30.5004 26.199 30.4214 26.3897 30.2807 26.5304C30.1401 26.671 29.9493 26.7501 29.7504 26.7501H23.7504C23.5515 26.7501 23.3607 26.671 23.2201 26.5304C23.0794 26.3897 23.0004 26.199 23.0004 26.0001C23.0004 25.8011 23.0794 25.6104 23.2201 25.4697C23.3607 25.3291 23.5515 25.2501 23.7504 25.2501H27.9401L20.7504 18.0604L17.531 21.2807C17.4614 21.3504 17.3787 21.4057 17.2876 21.4435C17.1966 21.4812 17.099 21.5006 17.0004 21.5006C16.9019 21.5006 16.8043 21.4812 16.7132 21.4435C16.6222 21.4057 16.5394 21.3504 16.4698 21.2807L9.71979 14.5307C9.57906 14.3899 9.5 14.1991 9.5 14.0001C9.5 13.801 9.57906 13.6102 9.71979 13.4694C9.86052 13.3287 10.0514 13.2496 10.2504 13.2496C10.4494 13.2496 10.6403 13.3287 10.781 13.4694L17.0004 19.6897L20.2198 16.4694C20.2894 16.3997 20.3722 16.3444 20.4632 16.3066C20.5543 16.2689 20.6519 16.2495 20.7504 16.2495C20.849 16.2495 20.9466 16.2689 21.0376 16.3066C21.1287 16.3444 21.2114 16.3997 21.281 16.4694L29.0004 24.1897V20.0001C29.0004 19.8011 29.0794 19.6104 29.2201 19.4697C29.3607 19.3291 29.5515 19.2501 29.7504 19.2501C29.9493 19.2501 30.1401 19.3291 30.2807 19.4697C30.4214 19.6104 30.5004 19.8011 30.5004 20.0001Z" fill="white"/>
</svg>
