<svg width="40" height="40" viewBox="0 0 40 40" fill="none" xmlns="http://www.w3.org/2000/svg">
<rect width="40" height="40" rx="12" fill="#635BFF"/>
<path fill-rule="evenodd" clip-rule="evenodd" d="M19.948 9.25H20.052C20.951 9.25 21.7 9.25 22.294 9.33C22.922 9.414 23.489 9.6 23.944 10.055C24.4 10.511 24.586 11.078 24.67 11.705C24.73 12.145 24.745 12.669 24.749 13.275C25.397 13.296 25.975 13.335 26.489 13.403C27.661 13.561 28.61 13.893 29.359 14.641C30.107 15.39 30.439 16.339 30.597 17.511C30.75 18.651 30.75 20.106 30.75 21.944V22.056C30.75 23.894 30.75 25.35 30.597 26.489C30.439 27.661 30.107 28.61 29.359 29.359C28.61 30.107 27.661 30.439 26.489 30.597C25.349 30.75 23.894 30.75 22.056 30.75H17.944C16.106 30.75 14.65 30.75 13.511 30.597C12.339 30.439 11.39 30.107 10.641 29.359C9.893 28.61 9.561 27.661 9.403 26.489C9.25 25.349 9.25 23.894 9.25 22.056V21.944C9.25 20.106 9.25 18.65 9.403 17.511C9.561 16.339 9.893 15.39 10.641 14.641C11.39 13.893 12.339 13.561 13.511 13.403C14.0886 13.3322 14.6693 13.2895 15.251 13.275C15.255 12.669 15.271 12.145 15.33 11.705C15.414 11.078 15.6 10.511 16.055 10.055C16.511 9.6 17.078 9.415 17.705 9.33C18.3 9.25 19.05 9.25 19.948 9.25ZM16.752 13.252C17.13 13.25 17.5273 13.2493 17.944 13.25H22.056C22.4727 13.25 22.87 13.2507 23.248 13.252C23.244 12.682 23.23 12.252 23.184 11.905C23.121 11.444 23.014 11.246 22.884 11.116C22.754 10.986 22.556 10.879 22.094 10.816C21.612 10.752 20.964 10.75 20 10.75C19.036 10.75 18.388 10.752 17.905 10.817C17.444 10.879 17.246 10.986 17.116 11.117C16.986 11.248 16.879 11.444 16.816 11.905C16.77 12.251 16.756 12.681 16.752 13.252ZM13.71 14.89C12.704 15.025 12.124 15.279 11.7 15.702C11.278 16.125 11.024 16.705 10.889 17.711C10.751 18.738 10.749 20.093 10.749 22C10.749 23.907 10.751 25.262 10.889 26.29C11.024 27.295 11.278 27.875 11.701 28.298C12.124 28.721 12.704 28.975 13.71 29.11C14.738 29.248 16.092 29.25 17.999 29.25H21.999C23.906 29.25 25.261 29.248 26.289 29.11C27.294 28.975 27.874 28.721 28.297 28.298C28.72 27.875 28.974 27.295 29.109 26.289C29.247 25.262 29.249 23.907 29.249 22C29.249 20.093 29.247 18.739 29.109 17.71C28.974 16.705 28.72 16.125 28.297 15.702C27.874 15.279 27.294 15.025 26.288 14.89C25.261 14.752 23.906 14.75 21.999 14.75H17.999C16.092 14.75 14.739 14.752 13.71 14.89ZM20 17.25C20.1989 17.25 20.3897 17.329 20.5303 17.4697C20.671 17.6103 20.75 17.8011 20.75 18V18.01C21.839 18.284 22.75 19.143 22.75 20.333C22.75 20.5319 22.671 20.7227 22.5303 20.8633C22.3897 21.004 22.1989 21.083 22 21.083C21.8011 21.083 21.6103 21.004 21.4697 20.8633C21.329 20.7227 21.25 20.5319 21.25 20.333C21.25 19.949 20.824 19.417 20 19.417C19.176 19.417 18.75 19.949 18.75 20.333C18.75 20.717 19.176 21.25 20 21.25C21.385 21.25 22.75 22.21 22.75 23.667C22.75 24.857 21.839 25.715 20.75 25.99V26C20.75 26.1989 20.671 26.3897 20.5303 26.5303C20.3897 26.671 20.1989 26.75 20 26.75C19.8011 26.75 19.6103 26.671 19.4697 26.5303C19.329 26.3897 19.25 26.1989 19.25 26V25.99C18.161 25.716 17.25 24.857 17.25 23.667C17.25 23.4681 17.329 23.2773 17.4697 23.1367C17.6103 22.996 17.8011 22.917 18 22.917C18.1989 22.917 18.3897 22.996 18.5303 23.1367C18.671 23.2773 18.75 23.4681 18.75 23.667C18.75 24.051 19.176 24.583 20 24.583C20.824 24.583 21.25 24.051 21.25 23.667C21.25 23.283 20.824 22.75 20 22.75C18.615 22.75 17.25 21.79 17.25 20.333C17.25 19.143 18.161 18.284 19.25 18.01V18C19.25 17.8011 19.329 17.6103 19.4697 17.4697C19.6103 17.329 19.8011 17.25 20 17.25Z" fill="white"/>
</svg>
