<svg width="40" height="40" viewBox="0 0 40 40" fill="none" xmlns="http://www.w3.org/2000/svg">
<rect width="40" height="40" rx="12" fill="#F8C20A"/>
<circle cx="20" cy="24" r="3.4" stroke="white" stroke-width="1.2"/>
<path fill-rule="evenodd" clip-rule="evenodd" d="M15.4347 9.25C14.8647 9.25 14.3817 9.25 13.9817 9.291C13.5557 9.335 13.1617 9.431 12.7907 9.661C12.4197 9.891 12.1567 10.2 11.9267 10.561C11.7117 10.901 11.4947 11.333 11.2397 11.843L11.2237 11.876L11.1967 11.936L9.79375 15.483C9.62675 15.906 9.44175 16.433 9.38675 16.971C9.33175 17.523 9.40775 18.154 9.83975 18.701C10.097 19.0278 10.4251 19.292 10.7992 19.4737C11.1733 19.6554 11.5838 19.7499 11.9997 19.75C12.7877 19.75 13.4987 19.419 13.9997 18.887C14.2564 19.1599 14.5663 19.3773 14.9103 19.5258C15.2543 19.6742 15.6251 19.7505 15.9997 19.75C16.7877 19.75 17.4987 19.419 17.9998 18.887C18.2564 19.1599 18.5663 19.3773 18.9103 19.5258C19.2543 19.6742 19.6251 19.7505 19.9998 19.75C20.7878 19.75 21.4987 19.419 21.9998 18.887C22.2564 19.1599 22.5663 19.3773 22.9103 19.5258C23.2543 19.6742 23.6251 19.7505 23.9998 19.75C24.7878 19.75 25.4988 19.419 25.9998 18.887C26.2564 19.1599 26.5663 19.3773 26.9103 19.5258C27.2543 19.6742 27.6251 19.7505 27.9998 19.75C28.8768 19.75 29.6577 19.339 30.1597 18.702C30.5917 18.154 30.6678 17.522 30.6128 16.972C30.5588 16.432 30.3728 15.906 30.2068 15.483L28.8027 11.935L28.7757 11.875L28.7598 11.843C28.5048 11.333 28.2887 10.9 28.0728 10.561C27.8428 10.2 27.5817 9.891 27.2097 9.661C26.8377 9.431 26.4447 9.335 26.0187 9.291C25.6187 9.25 25.1348 9.25 24.5648 9.25H15.4347ZM15.9997 18.25C15.3097 18.25 14.7497 17.69 14.7497 17C14.7497 16.8011 14.6707 16.6103 14.5301 16.4697C14.3894 16.329 14.1987 16.25 13.9997 16.25C13.8008 16.25 13.6101 16.329 13.4694 16.4697C13.3288 16.6103 13.2497 16.8011 13.2497 17C13.2497 17.2598 13.1686 17.5131 13.0179 17.7247C12.8672 17.9363 12.6543 18.0957 12.4088 18.1808C12.1633 18.2658 11.8974 18.2722 11.6481 18.1991C11.3988 18.126 11.1785 17.9771 11.0177 17.773C10.9037 17.629 10.8477 17.431 10.8797 17.121C10.9117 16.799 11.0307 16.433 11.1877 16.035L12.5797 12.517C12.8477 11.982 13.0267 11.627 13.1927 11.367C13.3527 11.115 13.4677 11.006 13.5787 10.937C13.6907 10.867 13.8387 10.814 14.1357 10.783C14.4497 10.751 14.8557 10.75 15.4717 10.75H24.5278C25.1447 10.75 25.5508 10.75 25.8638 10.783C26.1608 10.814 26.3097 10.868 26.4207 10.937C26.5317 11.006 26.6467 11.115 26.8067 11.367C26.9737 11.627 27.1528 11.982 27.4198 12.517L28.8118 16.035C28.9688 16.433 29.0878 16.799 29.1198 17.121C29.1518 17.431 29.0958 17.629 28.9827 17.773C28.8221 17.9775 28.6017 18.1268 28.3522 18.2001C28.1027 18.2735 27.8366 18.2671 27.5908 18.1821C27.3451 18.097 27.132 17.9374 26.9813 17.7255C26.8305 17.5137 26.7496 17.26 26.7498 17C26.7498 16.8011 26.6707 16.6103 26.5301 16.4697C26.3894 16.329 26.1987 16.25 25.9998 16.25C25.8008 16.25 25.6101 16.329 25.4694 16.4697C25.3288 16.6103 25.2498 16.8011 25.2498 17C25.2498 17.3315 25.1181 17.6495 24.8836 17.8839C24.6492 18.1183 24.3313 18.25 23.9998 18.25C23.6682 18.25 23.3503 18.1183 23.1159 17.8839C22.8814 17.6495 22.7498 17.3315 22.7498 17C22.7498 16.8011 22.6707 16.6103 22.5301 16.4697C22.3894 16.329 22.1987 16.25 21.9998 16.25C21.8008 16.25 21.6101 16.329 21.4694 16.4697C21.3288 16.6103 21.2498 16.8011 21.2498 17C21.2498 17.3315 21.1181 17.6495 20.8836 17.8839C20.6492 18.1183 20.3313 18.25 19.9998 18.25C19.6682 18.25 19.3503 18.1183 19.1159 17.8839C18.8814 17.6495 18.7498 17.3315 18.7498 17C18.7498 16.8011 18.6707 16.6103 18.5301 16.4697C18.3894 16.329 18.1987 16.25 17.9998 16.25C17.8008 16.25 17.6101 16.329 17.4694 16.4697C17.3288 16.6103 17.2497 16.8011 17.2497 17C17.2497 17.69 16.6897 18.25 15.9997 18.25Z" fill="white"/>
<path d="M27.75 23C27.75 22.8011 27.671 22.6103 27.5303 22.4697C27.3897 22.329 27.1989 22.25 27 22.25C26.8011 22.25 26.6103 22.329 26.4697 22.4697C26.329 22.6103 26.25 22.8011 26.25 23V29.25H13.75V23C13.75 22.8011 13.671 22.6103 13.5303 22.4697C13.3897 22.329 13.1989 22.25 13 22.25C12.8011 22.25 12.6103 22.329 12.4697 22.4697C12.329 22.6103 12.25 22.8011 12.25 23V29.25H11C10.8011 29.25 10.6103 29.329 10.4697 29.4697C10.329 29.6103 10.25 29.8011 10.25 30C10.25 30.1989 10.329 30.3897 10.4697 30.5303C10.6103 30.671 10.8011 30.75 11 30.75H29C29.1989 30.75 29.3897 30.671 29.5303 30.5303C29.671 30.3897 29.75 30.1989 29.75 30C29.75 29.8011 29.671 29.6103 29.5303 29.4697C29.3897 29.329 29.1989 29.25 29 29.25H27.75V23Z" fill="white"/>
<path d="M20.083 22C20.2819 22 20.4727 22.079 20.6133 22.2197C20.754 22.3603 20.833 22.5511 20.833 22.75V23.333H21.416C21.6149 23.333 21.8057 23.412 21.9463 23.5527C22.087 23.6933 22.166 23.8841 22.166 24.083C22.166 24.2819 22.087 24.4727 21.9463 24.6133C21.8057 24.754 21.6149 24.833 21.416 24.833H20.833V25.416C20.833 25.6149 20.754 25.8057 20.6133 25.9463C20.4727 26.087 20.2819 26.166 20.083 26.166C19.8841 26.166 19.6933 26.087 19.5527 25.9463C19.412 25.8057 19.333 25.6149 19.333 25.416V24.833H18.75C18.5511 24.833 18.3603 24.754 18.2197 24.6133C18.079 24.4727 18 24.2819 18 24.083C18 23.8841 18.079 23.6933 18.2197 23.5527C18.3603 23.412 18.5511 23.333 18.75 23.333H19.333V22.75C19.333 22.5511 19.412 22.3603 19.5527 22.2197C19.6933 22.079 19.8841 22 20.083 22Z" fill="white"/>
</svg>
