<svg width="40" height="40" viewBox="0 0 40 40" fill="none" xmlns="http://www.w3.org/2000/svg">
<rect width="40" height="40" rx="12" fill="#36C76C"/>
<path fill-rule="evenodd" clip-rule="evenodd" d="M15.25 14C15.25 12.7402 15.7504 11.532 16.6412 10.6412C17.532 9.75044 18.7402 9.25 20 9.25C21.2598 9.25 22.468 9.75044 23.3588 10.6412C24.2496 11.532 24.75 12.7402 24.75 14C24.75 15.2598 24.2496 16.468 23.3588 17.3588C22.468 18.2496 21.2598 18.75 20 18.75C18.7402 18.75 17.532 18.2496 16.6412 17.3588C15.7504 16.468 15.25 15.2598 15.25 14ZM20 10.75C19.138 10.75 18.3114 11.0924 17.7019 11.7019C17.0924 12.3114 16.75 13.138 16.75 14C16.75 14.862 17.0924 15.6886 17.7019 16.2981C18.3114 16.9076 19.138 17.25 20 17.25C20.862 17.25 21.6886 16.9076 22.2981 16.2981C22.9076 15.6886 23.25 14.862 23.25 14C23.25 13.138 22.9076 12.3114 22.2981 11.7019C21.6886 11.0924 20.862 10.75 20 10.75Z" fill="white"/>
<path d="M26.001 21.917C26.1999 21.917 26.3906 21.996 26.5313 22.1367C26.672 22.2773 26.751 22.4681 26.751 22.667V23.25H27.334C27.5329 23.25 27.7236 23.329 27.8643 23.4697C28.005 23.6103 28.084 23.8011 28.084 24C28.084 24.1989 28.005 24.3897 27.8643 24.5303C27.7236 24.671 27.5329 24.75 27.334 24.75H26.751V25.333C26.751 25.5319 26.672 25.7227 26.5313 25.8633C26.3906 26.004 26.1999 26.083 26.001 26.083C25.8021 26.083 25.6113 26.004 25.4706 25.8633C25.33 25.7227 25.251 25.5319 25.251 25.333V24.75H24.668C24.4691 24.75 24.2783 24.671 24.1376 24.5303C23.997 24.3897 23.918 24.1989 23.918 24C23.918 23.8011 23.997 23.6103 24.1376 23.4697C24.2783 23.329 24.4691 23.25 24.668 23.25H25.251V22.667C25.251 22.4681 25.33 22.2773 25.4706 22.1367C25.6113 21.996 25.8021 21.917 26.001 21.917Z" fill="white"/>
<path fill-rule="evenodd" clip-rule="evenodd" d="M22.7751 20.5127C21.8606 20.3362 20.9314 20.2481 20.0001 20.2497C17.6871 20.2497 15.5551 20.7757 13.9761 21.6637C12.4201 22.5397 11.2501 23.8657 11.2501 25.4997V25.6017C11.2491 26.7637 11.2481 28.2217 12.5271 29.2637C13.1561 29.7757 14.0371 30.1407 15.2271 30.3807C16.4191 30.6227 17.9741 30.7497 20.0001 30.7497C22.8681 30.7497 24.8101 30.4957 26.1201 30.0087C27.2991 29.5687 27.9971 28.9267 28.3701 28.1167C28.949 27.7829 29.451 27.3306 29.8431 26.7895C30.2353 26.2484 30.5089 25.6306 30.646 24.9765C30.7832 24.3224 30.7807 23.6467 30.6388 22.9936C30.497 22.3406 30.2189 21.7248 29.8228 21.1865C29.4267 20.6483 28.9214 20.1997 28.3401 19.87C27.7587 19.5404 27.1143 19.3371 26.4491 19.2735C25.7838 19.2099 25.1126 19.2874 24.4793 19.501C23.8461 19.7145 23.266 20.0593 22.7751 20.5127ZM14.7101 22.9717C13.3701 23.7247 12.7501 24.6487 12.7501 25.4997C12.7501 26.8077 12.7901 27.5437 13.4731 28.0997C13.8431 28.4017 14.4631 28.6967 15.5231 28.9107C16.5801 29.1247 18.0251 29.2497 19.9991 29.2497C22.5771 29.2497 24.2391 29.0367 25.3101 28.6997C24.5657 28.5908 23.8579 28.3066 23.2449 27.8705C22.6319 27.4345 22.1312 26.8591 21.7841 26.1917C21.4369 25.5243 21.2533 24.784 21.2483 24.0317C21.2432 23.2794 21.4169 22.5367 21.7551 21.8647C21.1733 21.7868 20.587 21.7484 20.0001 21.7497C17.8951 21.7497 16.0261 22.2317 14.7101 22.9717ZM22.7511 23.9997C22.7511 23.1378 23.0935 22.3111 23.703 21.7017C24.3125 21.0922 25.1391 20.7497 26.0011 20.7497C26.863 20.7497 27.6897 21.0922 28.2992 21.7017C28.9086 22.3111 29.2511 23.1378 29.2511 23.9997C29.2511 24.8617 28.9086 25.6884 28.2992 26.2978C27.6897 26.9073 26.863 27.2497 26.0011 27.2497C25.1391 27.2497 24.3125 26.9073 23.703 26.2978C23.0935 25.6884 22.7511 24.8617 22.7511 23.9997Z" fill="white"/>
</svg>
