<svg width="40" height="40" viewBox="0 0 40 40" fill="none" xmlns="http://www.w3.org/2000/svg">
<path d="M33.3334 18.3332C32.9258 15.4002 31.5652 12.6826 29.4611 10.599C27.3571 8.51539 24.6263 7.18137 21.6895 6.80242C18.7527 6.42348 15.7728 7.02064 13.2088 8.50191C10.6447 9.98318 8.63883 12.2664 7.50008 14.9998M6.66675 8.33317V14.9998H13.3334M6.66675 21.6665C7.07435 24.5995 8.43497 27.3171 10.539 29.4007C12.6431 31.4843 15.3738 32.8183 18.3106 33.1972C21.2474 33.5762 24.2274 32.979 26.7914 31.4978C29.3554 30.0165 31.3613 27.7333 32.5001 24.9998M33.3334 31.6665V24.9998H26.6667" stroke="white" stroke-width="3.33333" stroke-linecap="round" stroke-linejoin="round"/>
</svg>
