<svg width="40" height="40" viewBox="0 0 40 40" fill="none" xmlns="http://www.w3.org/2000/svg">
<path fill-rule="evenodd" clip-rule="evenodd" d="M12.0833 9.99967C12.0833 7.90004 12.9173 5.88641 14.402 4.40175C15.8867 2.91708 17.9003 2.08301 19.9999 2.08301C22.0995 2.08301 24.1132 2.91708 25.5978 4.40175C27.0825 5.88641 27.9166 7.90004 27.9166 9.99967C27.9166 12.0993 27.0825 14.1129 25.5978 15.5976C24.1132 17.0823 22.0995 17.9163 19.9999 17.9163C17.9003 17.9163 15.8867 17.0823 14.402 15.5976C12.9173 14.1129 12.0833 12.0993 12.0833 9.99967ZM19.9999 4.58301C18.5633 4.58301 17.1856 5.15369 16.1698 6.16951C15.1539 7.18533 14.5833 8.56309 14.5833 9.99967C14.5833 11.4363 15.1539 12.814 16.1698 13.8298C17.1856 14.8457 18.5633 15.4163 19.9999 15.4163C21.4365 15.4163 22.8143 14.8457 23.8301 13.8298C24.8459 12.814 25.4166 11.4363 25.4166 9.99967C25.4166 8.56309 24.8459 7.18533 23.8301 6.16951C22.8143 5.15369 21.4365 4.58301 19.9999 4.58301Z" fill="#635BFF"/>
<path d="M30.0017 23.1953C30.3332 23.1953 30.6512 23.327 30.8856 23.5614C31.12 23.7959 31.2517 24.1138 31.2517 24.4453V25.417H32.2234C32.5549 25.417 32.8728 25.5487 33.1072 25.7831C33.3417 26.0175 33.4734 26.3355 33.4734 26.667C33.4734 26.9985 33.3417 27.3164 33.1072 27.5509C32.8728 27.7853 32.5549 27.917 32.2234 27.917H31.2517V28.8886C31.2517 29.2202 31.12 29.5381 30.8856 29.7725C30.6512 30.007 30.3332 30.1386 30.0017 30.1386C29.6702 30.1386 29.3522 30.007 29.1178 29.7725C28.8834 29.5381 28.7517 29.2202 28.7517 28.8886V27.917H27.78C27.4485 27.917 27.1306 27.7853 26.8961 27.5509C26.6617 27.3164 26.53 26.9985 26.53 26.667C26.53 26.3355 26.6617 26.0175 26.8961 25.7831C27.1306 25.5487 27.4485 25.417 27.78 25.417H28.7517V24.4453C28.7517 24.1138 28.8834 23.7959 29.1178 23.5614C29.3522 23.327 29.6702 23.1953 30.0017 23.1953Z" fill="#635BFF"/>
<path fill-rule="evenodd" clip-rule="evenodd" d="M24.6252 20.8543C23.1012 20.56 21.5523 20.4132 20.0002 20.4159C16.1452 20.4159 12.5918 21.2926 9.96017 22.7726C7.36684 24.2326 5.41684 26.4426 5.41684 29.1659V29.3359C5.41517 31.2726 5.41351 33.7026 7.54517 35.4393C8.59351 36.2926 10.0618 36.9009 12.0452 37.3009C14.0318 37.7043 16.6235 37.9159 20.0002 37.9159C24.7802 37.9159 28.0168 37.4926 30.2002 36.6809C32.1652 35.9476 33.3285 34.8776 33.9502 33.5276C34.9151 32.9711 35.7517 32.2173 36.4053 31.3155C37.059 30.4136 37.515 29.3839 37.7435 28.2938C37.972 27.2036 37.9679 26.0775 37.7315 24.9891C37.495 23.9006 37.0316 22.8743 36.3714 21.9772C35.7112 21.0801 34.8691 20.3324 33.9002 19.783C32.9313 19.2336 31.8573 18.8948 30.7485 18.7889C29.6397 18.6829 28.5211 18.812 27.4656 19.168C26.4102 19.5239 25.4434 20.0985 24.6252 20.8543ZM11.1835 24.9526C8.95017 26.2076 7.91684 27.7476 7.91684 29.1659C7.91684 31.3459 7.98351 32.5726 9.12184 33.4993C9.73851 34.0026 10.7718 34.4943 12.5385 34.8509C14.3002 35.2076 16.7085 35.4159 19.9985 35.4159C24.2952 35.4159 27.0652 35.0609 28.8502 34.4993C27.6096 34.3176 26.4299 33.8439 25.4082 33.1172C24.3865 32.3905 23.5521 31.4314 22.9735 30.3191C22.395 29.2068 22.0889 27.9729 22.0805 26.7192C22.0721 25.4654 22.3616 24.2276 22.9252 23.1076C21.9556 22.9777 20.9784 22.9137 20.0002 22.9159C16.4918 22.9159 13.3768 23.7193 11.1835 24.9526ZM24.5852 26.6659C24.5852 25.2293 25.1559 23.8516 26.1717 22.8358C27.1875 21.8199 28.5653 21.2493 30.0018 21.2493C31.4384 21.2493 32.8162 21.8199 33.832 22.8358C34.8478 23.8516 35.4185 25.2293 35.4185 26.6659C35.4185 28.1025 34.8478 29.4803 33.832 30.4961C32.8162 31.5119 31.4384 32.0826 30.0018 32.0826C28.5653 32.0826 27.1875 31.5119 26.1717 30.4961C25.1559 29.4803 24.5852 28.1025 24.5852 26.6659Z" fill="#635BFF"/>
</svg>
