<svg width="40" height="40" viewBox="0 0 40 40" fill="none" xmlns="http://www.w3.org/2000/svg">
<rect width="40" height="40" rx="12" fill="#16CDC7"/>
<path d="M26 14.1016C27.3001 14.2294 28.1752 14.5185 28.8284 15.1716C30 16.3432 30 18.2288 30 22.0001C30 25.7713 30 27.6569 28.8284 28.8285C27.6569 30.0001 25.7712 30.0001 22 30.0001H18C14.2288 30.0001 12.3431 30.0001 11.1716 28.8285C10 27.6569 10 25.7713 10 22.0001C10 18.2288 10 16.3432 11.1716 15.1716C11.8248 14.5185 12.6999 14.2294 14 14.1016" stroke="white" stroke-width="1.5"/>
<path d="M18 14H22" stroke="white" stroke-width="1.5" stroke-linecap="round"/>
<path d="M19 17H21" stroke="white" stroke-width="1.5" stroke-linecap="round"/>
<path d="M16.1589 19.7991L15.4393 19.1994C14.7315 18.6096 14.3776 18.3147 14.1888 17.9116C14 17.5084 14 17.0478 14 16.1265V15C14 12.643 14 11.4645 14.7322 10.7322C15.4645 10 16.643 10 19 10H21C23.357 10 24.5355 10 25.2678 10.7322C26 11.4645 26 12.643 26 15V16.1265C26 17.0478 26 17.5084 25.8112 17.9116C25.6224 18.3147 25.2685 18.6096 24.5607 19.1994L23.8411 19.7991C22.0045 21.3296 21.0861 22.0949 20 22.0949C18.9139 22.0949 17.9955 21.3296 16.1589 19.7991Z" stroke="white" stroke-width="1.5" stroke-linecap="round"/>
<path d="M14 18L16.1589 19.7991C17.9955 21.3296 18.9139 22.0949 20 22.0949C21.0861 22.0949 22.0045 21.3296 23.8411 19.7991L26 18" stroke="white" stroke-width="1.5" stroke-linecap="round"/>
</svg>
