<svg width="20" height="20" viewBox="0 0 20 20" fill="none" xmlns="http://www.w3.org/2000/svg">
<g clip-path="url(#clip0_347_49163)">
<path d="M2.62551 11.3672C2.30008 9.61066 2.61232 7.79565 3.50603 6.24885C4.39973 4.70205 5.81621 3.52504 7.50051 2.92969V8.55469L2.62551 11.3672Z" stroke="#635BFF" stroke-width="1.5" stroke-linecap="round" stroke-linejoin="round"/>
<path d="M9.99844 10.0328V2.5C11.3125 2.5002 12.6034 2.84562 13.7419 3.50169C14.8804 4.15775 15.8266 5.10142 16.4857 6.23821C17.1448 7.37499 17.4936 8.66498 17.4973 9.979C17.501 11.293 17.1593 12.5849 16.5066 13.7254C15.8539 14.8659 14.9131 15.8148 13.7782 16.4772C12.6434 17.1397 11.3544 17.4923 10.0404 17.4999C8.72643 17.5074 7.4335 17.1696 6.29113 16.5203C5.14875 15.871 4.19702 14.9329 3.53125 13.8L9.99844 10.0328Z" stroke="#635BFF" stroke-width="1.5" stroke-linecap="round" stroke-linejoin="round"/>
</g>
<defs>
<clipPath id="clip0_347_49163">
<rect width="20" height="20" fill="white"/>
</clipPath>
</defs>
</svg>
