<svg width="20" height="20" viewBox="0 0 20 20" fill="none" xmlns="http://www.w3.org/2000/svg">
<path d="M10.4167 4.16669C11.988 4.16669 12.7737 4.16669 13.2618 4.65484C13.75 5.143 13.75 5.92867 13.75 7.50002V12.5C13.75 14.0714 13.75 14.857 13.2618 15.3452C12.7737 15.8334 11.988 15.8334 10.4167 15.8334H9.58333C8.01198 15.8334 7.22631 15.8334 6.73816 15.3452C6.25 14.857 6.25 14.0714 6.25 12.5L6.25 7.50002C6.25 5.92867 6.25 5.143 6.73816 4.65484C7.22631 4.16669 8.01199 4.16669 9.58333 4.16669L10.4167 4.16669Z" stroke="#635BFF" stroke-width="1.5"/>
<path d="M18.334 15.8334H17.9173C16.7667 15.8334 15.834 14.9006 15.834 13.75L15.834 6.25002C15.834 5.09943 16.7667 4.16669 17.9173 4.16669L18.334 4.16669" stroke="#635BFF" stroke-width="1.5" stroke-linecap="round"/>
<path d="M1.66602 15.8334H2.08268C3.23328 15.8334 4.16602 14.9006 4.16602 13.75L4.16602 6.25002C4.16602 5.09943 3.23328 4.16669 2.08268 4.16669L1.66602 4.16669" stroke="#635BFF" stroke-width="1.5" stroke-linecap="round"/>
</svg>
