<svg width="22" height="22" viewBox="0 0 22 22" fill="none" xmlns="http://www.w3.org/2000/svg">
<path fill-rule="evenodd" clip-rule="evenodd" d="M6.185 0H15.315C15.885 0 16.369 7.45058e-09 16.768 0.041C17.194 0.085 17.588 0.181 17.96 0.411C18.331 0.641 18.593 0.95 18.823 1.311C19.038 1.651 19.255 2.083 19.51 2.593L19.526 2.626C19.536 2.646 19.545 2.666 19.553 2.686L20.956 6.233C21.124 6.656 21.309 7.183 21.363 7.721C21.418 8.273 21.343 8.904 20.91 9.451C20.5514 9.9068 20.0579 10.2376 19.5 10.396V20H20.75C20.9489 20 21.1397 20.079 21.2803 20.2197C21.421 20.3603 21.5 20.5511 21.5 20.75C21.5 20.9489 21.421 21.1397 21.2803 21.2803C21.1397 21.421 20.9489 21.5 20.75 21.5H0.75C0.551088 21.5 0.360322 21.421 0.21967 21.2803C0.0790177 21.1397 0 20.9489 0 20.75C0 20.5511 0.0790177 20.3603 0.21967 20.2197C0.360322 20.079 0.551088 20 0.75 20H2V10.396C1.44224 10.2378 0.948744 9.90743 0.59 9.452C0.158 8.904 0.082 8.272 0.137 7.722C0.191 7.182 0.377 6.656 0.543 6.233L1.947 2.685L1.974 2.625L1.99 2.593C2.245 2.083 2.461 1.65 2.677 1.311C2.907 0.95 3.169 0.641 3.54 0.411C3.912 0.181 4.306 0.085 4.731 0.041C5.131 7.45058e-09 5.615 0 6.185 0ZM16.75 9.638C17.0906 9.99881 17.5226 10.2607 18 10.396V20H14V17.218C14 16.778 14 16.398 13.972 16.088C13.942 15.758 13.876 15.432 13.699 15.125C13.5015 14.7827 13.2173 14.4985 12.875 14.301C12.568 14.124 12.242 14.058 11.913 14.028C11.601 14 11.222 14 10.783 14H10.718C10.278 14 9.898 14 9.588 14.028C9.258 14.058 8.932 14.124 8.625 14.301C8.28274 14.4985 7.99854 14.7827 7.801 15.125C7.624 15.432 7.558 15.758 7.528 16.087C7.5 16.399 7.5 16.778 7.5 17.217V20H3.5V10.397C3.97764 10.2612 4.40959 9.99855 4.75 9.637C5.00665 9.90994 5.31656 10.1273 5.66056 10.2758C6.00456 10.4242 6.37534 10.5005 6.75 10.5C7.538 10.5 8.249 10.169 8.75 9.637C9.00665 9.90994 9.31656 10.1273 9.66056 10.2758C10.0046 10.4242 10.3753 10.5005 10.75 10.5C11.538 10.5 12.249 10.169 12.75 9.637C13.0067 9.90994 13.3166 10.1273 13.6606 10.2758C14.0046 10.4242 14.3753 10.5005 14.75 10.5C15.538 10.5 16.249 10.17 16.75 9.638ZM9 20H12.5V17.25C12.5 16.769 12.5 16.458 12.478 16.223C12.458 15.998 12.423 15.916 12.399 15.875C12.3332 15.7612 12.2388 15.6668 12.125 15.601C12.085 15.577 12.002 15.543 11.777 15.522C11.4351 15.5011 11.0925 15.4938 10.75 15.5C10.269 15.5 9.958 15.5 9.723 15.522C9.498 15.542 9.416 15.577 9.375 15.601C9.26124 15.6668 9.16675 15.7612 9.101 15.875C9.077 15.915 9.042 15.998 9.022 16.223C9.001 16.458 9 16.769 9 17.25V20ZM5.5 7.75C5.5 8.08152 5.6317 8.39946 5.86612 8.63388C6.10054 8.8683 6.41848 9 6.75 9C7.08152 9 7.39946 8.8683 7.63388 8.63388C7.8683 8.39946 8 8.08152 8 7.75C8 7.55109 8.07902 7.36032 8.21967 7.21967C8.36032 7.07902 8.55109 7 8.75 7C8.94891 7 9.13968 7.07902 9.28033 7.21967C9.42098 7.36032 9.5 7.55109 9.5 7.75C9.5 8.08152 9.6317 8.39946 9.86612 8.63388C10.1005 8.8683 10.4185 9 10.75 9C11.0815 9 11.3995 8.8683 11.6339 8.63388C11.8683 8.39946 12 8.08152 12 7.75C12 7.55109 12.079 7.36032 12.2197 7.21967C12.3603 7.07902 12.5511 7 12.75 7C12.9489 7 13.1397 7.07902 13.2803 7.21967C13.421 7.36032 13.5 7.55109 13.5 7.75C13.5 8.08152 13.6317 8.39946 13.8661 8.63388C14.1005 8.8683 14.4185 9 14.75 9C15.0815 9 15.3995 8.8683 15.6339 8.63388C15.8683 8.39946 16 8.08152 16 7.75C16 7.55109 16.079 7.36032 16.2197 7.21967C16.3603 7.07902 16.5511 7 16.75 7C16.9489 7 17.1397 7.07902 17.2803 7.21967C17.421 7.36032 17.5 7.55109 17.5 7.75C17.5001 8.0098 17.5811 8.26311 17.7318 8.47472C17.8825 8.68633 18.0954 8.84573 18.3409 8.93075C18.5864 9.01577 18.8523 9.02219 19.1016 8.94911C19.3509 8.87603 19.5713 8.7271 19.732 8.523C19.846 8.379 19.902 8.181 19.87 7.871C19.838 7.549 19.719 7.183 19.562 6.785L18.17 3.267C17.902 2.732 17.723 2.377 17.557 2.117C17.397 1.865 17.283 1.756 17.171 1.687C17.06 1.617 16.911 1.564 16.614 1.533C16.3 1.501 15.894 1.5 15.278 1.5H6.222C5.605 1.5 5.199 1.5 4.886 1.533C4.589 1.564 4.44 1.618 4.329 1.687C4.218 1.756 4.103 1.865 3.943 2.117C3.776 2.377 3.598 2.732 3.33 3.267L1.938 6.785C1.781 7.183 1.662 7.549 1.63 7.871C1.599 8.181 1.654 8.379 1.768 8.523C1.92874 8.7271 2.14909 8.87603 2.39839 8.94911C2.6477 9.02219 2.91358 9.01577 3.15907 8.93075C3.40456 8.84573 3.61746 8.68633 3.76817 8.47472C3.91888 8.26311 3.99991 8.0098 4 7.75C4 7.55109 4.07902 7.36032 4.21967 7.21967C4.36032 7.07902 4.55109 7 4.75 7C4.94891 7 5.13968 7.07902 5.28033 7.21967C5.42098 7.36032 5.5 7.55109 5.5 7.75Z" fill="#98A4AE"/>
</svg>
