<svg width="24" height="24" viewBox="0 0 24 24" fill="none" xmlns="http://www.w3.org/2000/svg">
<path fill-rule="evenodd" clip-rule="evenodd" d="M12 1.25C6.063 1.25 1.25 6.063 1.25 12C1.25 17.937 6.063 22.75 12 22.75C17.937 22.75 22.75 17.937 22.75 12C22.75 6.063 17.937 1.25 12 1.25ZM2.75 12C2.75 9.716 3.578 7.625 4.95 6.011L8.153 9.213C7.56464 10.023 7.24847 10.9988 7.25 12C7.24847 13.0012 7.56464 13.977 8.153 14.787L4.95 17.989C3.52574 16.319 2.74545 14.1948 2.75 12ZM9.213 8.153L6.011 4.95C7.68099 3.52574 9.80515 2.74545 12 2.75C14.284 2.75 16.375 3.578 17.989 4.95L14.786 8.153C13.9763 7.56484 13.0008 7.24868 12 7.25C10.9988 7.24847 10.023 7.56464 9.213 8.153ZM6.011 19.05C7.68099 20.4743 9.80515 21.2545 12 21.25C14.1948 21.2545 16.319 20.4743 17.989 19.05L14.786 15.847C13.9763 16.4352 13.0008 16.7513 12 16.75C10.9988 16.7515 10.023 16.4354 9.213 15.847L6.011 19.05ZM15.847 14.786L19.05 17.989C20.4743 16.319 21.2545 14.1948 21.25 12C21.2545 9.80515 20.4743 7.68099 19.05 6.011L15.847 9.213C16.4354 10.023 16.7515 10.9988 16.75 12C16.7515 13.0012 16.4354 13.976 15.847 14.786ZM8.75 12C8.75 11.138 9.09241 10.3114 9.7019 9.7019C10.3114 9.09241 11.138 8.75 12 8.75C12.862 8.75 13.6886 9.09241 14.2981 9.7019C14.9076 10.3114 15.25 11.138 15.25 12C15.25 12.862 14.9076 13.6886 14.2981 14.2981C13.6886 14.9076 12.862 15.25 12 15.25C11.138 15.25 10.3114 14.9076 9.7019 14.2981C9.09241 13.6886 8.75 12.862 8.75 12Z" fill="#98A4AE"/>
</svg>
