<svg width="16" height="16" viewBox="0 0 16 16" fill="none" xmlns="http://www.w3.org/2000/svg">
<path d="M13.3333 7.33334C13.1703 6.16015 12.626 5.07311 11.7844 4.23967C10.9428 3.40623 9.85046 2.87262 8.67574 2.72104C7.50102 2.56947 6.30904 2.80833 5.28343 3.40084C4.25781 3.99335 3.45546 4.90663 2.99996 6.00001M2.66663 3.33334V6.00001H5.33329M2.66663 8.66667C2.82967 9.83986 3.37391 10.9269 4.21553 11.7603C5.05715 12.5938 6.14946 13.1274 7.32418 13.279C8.4989 13.4306 9.69088 13.1917 10.7165 12.5992C11.7421 12.0067 12.5445 11.0934 13 10M13.3333 12.6667V10H10.6666" stroke="#0A2540" stroke-width="1.2" stroke-linecap="round" stroke-linejoin="round"/>
</svg>
