<svg width="40" height="40" viewBox="0 0 40 40" fill="none" xmlns="http://www.w3.org/2000/svg">
<rect width="40" height="40" rx="12" fill="#635BFF"/>
<path d="M10 20C10 16.229 10 14.343 11.172 13.172C12.343 12 14.229 12 18 12H22C25.771 12 27.657 12 28.828 13.172C30 14.343 30 16.229 30 20C30 23.771 30 25.657 28.828 26.828C27.657 28 25.771 28 22 28H18C14.229 28 12.343 28 11.172 26.828C10 25.657 10 23.771 10 20Z" stroke="white" stroke-width="1.5"/>
<path d="M14 16L16.159 17.8C17.996 19.33 18.914 20.095 20 20.095C21.086 20.095 22.005 19.33 23.841 17.799L26 16" stroke="white" stroke-width="1.5" stroke-linecap="round"/>
</svg>
