<svg width="40" height="40" viewBox="0 0 40 40" fill="none" xmlns="http://www.w3.org/2000/svg">
<rect width="40" height="40" rx="12" fill="#16CDC7"/>
<path fill-rule="evenodd" clip-rule="evenodd" d="M20.0005 12.75C18.9405 12.75 18.0905 13.078 16.0665 13.888L13.2575 15.01C12.2475 15.414 11.5475 15.696 11.0935 15.934L10.9735 16L11.0935 16.065C11.5475 16.303 12.2475 16.585 13.2575 16.989L16.0665 18.112C18.0915 18.922 18.9405 19.25 20.0005 19.25C21.0605 19.25 21.9105 18.922 23.9345 18.112L26.7435 16.989C27.7535 16.585 28.4535 16.303 28.9075 16.065L29.0275 16L28.9075 15.935C28.4535 15.697 27.7535 15.415 26.7435 15.011L23.9345 13.888C21.9105 13.078 21.0605 12.75 20.0005 12.75ZM15.6245 12.449C17.5015 11.698 18.6215 11.25 20.0005 11.25C21.3795 11.25 22.4995 11.698 24.3765 12.449L24.4915 12.495L27.3455 13.637C28.3005 14.019 29.0735 14.327 29.6045 14.606C29.8725 14.746 30.1325 14.906 30.3335 15.099C30.5395 15.297 30.7505 15.597 30.7505 16C30.7505 16.403 30.5405 16.703 30.3335 16.901C30.1335 17.094 29.8735 17.253 29.6035 17.394C29.0735 17.672 28.3005 17.981 27.3455 18.364L24.4915 19.504L24.3765 19.551C22.4995 20.302 21.3795 20.75 20.0005 20.75C18.6215 20.75 17.5015 20.302 15.6245 19.551L15.5095 19.505L12.6555 18.363C11.7005 17.981 10.9275 17.673 10.3965 17.394C10.132 17.264 9.88666 17.0981 9.66753 16.901C9.46153 16.703 9.25053 16.403 9.25053 16C9.25053 15.597 9.46053 15.297 9.66753 15.099C9.86753 14.906 10.1275 14.747 10.3975 14.606C10.9275 14.328 11.7005 14.019 12.6555 13.636L15.5095 12.496L15.6245 12.449ZM10.5005 19.44L10.5045 19.443L10.5285 19.464C10.5525 19.484 10.5919 19.5153 10.6465 19.558C10.7555 19.642 10.9245 19.766 11.1545 19.915C11.6145 20.214 12.3155 20.611 13.2585 20.989L16.0675 22.112C18.0925 22.922 18.9415 23.25 20.0015 23.25C21.0615 23.25 21.9115 22.922 23.9355 22.112L26.7445 20.989C27.4795 20.7011 28.1842 20.3413 28.8485 19.915C29.073 19.7687 29.2899 19.6111 29.4985 19.443L29.5015 19.441L29.5025 19.44C29.651 19.3088 29.8454 19.2416 30.0432 19.2532C30.241 19.2648 30.4262 19.3542 30.5583 19.5019C30.6904 19.6496 30.7587 19.8436 30.7482 20.0414C30.7378 20.2393 30.6495 20.425 30.5025 20.558L30.0005 20L30.5005 20.558V20.56L30.4985 20.561L30.4935 20.565L30.4795 20.577L30.4345 20.616C30.1879 20.8154 29.9308 21.0017 29.6645 21.174C28.9174 21.6516 28.1257 22.0554 27.3005 22.38L24.4915 23.504L24.3765 23.55C22.4995 24.301 21.3795 24.749 20.0005 24.749C18.6215 24.749 17.5015 24.301 15.6245 23.55L15.5095 23.504L12.7005 22.38C11.8757 22.0551 11.0843 21.6508 10.3375 21.173C10.0709 21.0007 9.81351 20.8145 9.56653 20.615L9.52153 20.576L9.50753 20.564L9.50253 20.56L9.50153 20.558H9.50053L10.0005 20L9.50053 20.559C9.35214 20.4265 9.26245 20.2405 9.2512 20.0419C9.23995 19.8433 9.30805 19.6484 9.44053 19.5C9.573 19.3516 9.759 19.2619 9.9576 19.2507C10.1562 19.2394 10.3521 19.3075 10.5005 19.44ZM29.4995 23.441L29.5015 23.44C29.65 23.3088 29.8444 23.2416 30.0422 23.2532C30.24 23.2648 30.4252 23.3542 30.5573 23.5019C30.6894 23.6496 30.7577 23.8436 30.7472 24.0415C30.7368 24.2393 30.6485 24.425 30.5015 24.558L30.5005 24.56L30.4985 24.561L30.4935 24.565L30.4795 24.577C30.4689 24.587 30.4539 24.5997 30.4345 24.615C30.1879 24.8144 29.9308 25.0007 29.6645 25.173C28.9175 25.6512 28.1258 26.0558 27.3005 26.381L24.4915 27.505L24.3765 27.551C22.4995 28.302 21.3795 28.75 20.0005 28.75C18.6215 28.75 17.5015 28.302 15.6245 27.551L15.5095 27.505L12.7005 26.38C11.8757 26.0551 11.0843 25.6508 10.3375 25.173C10.0709 25.0007 9.81351 24.8145 9.56653 24.615L9.52153 24.576L9.50753 24.564L9.50253 24.56L9.50153 24.558H9.50053C9.3536 24.425 9.26527 24.2403 9.25482 24.0424C9.24437 23.8446 9.31266 23.6506 9.44477 23.5029C9.57687 23.3552 9.76206 23.2658 9.95988 23.2542C10.1577 23.2426 10.3521 23.3098 10.5005 23.441L10.5035 23.443L10.5275 23.464C10.5515 23.484 10.5909 23.5153 10.6455 23.558C10.7545 23.642 10.9235 23.766 11.1535 23.915C11.6135 24.214 12.3145 24.611 13.2575 24.989L16.0665 26.112C18.0915 26.922 18.9405 27.25 20.0005 27.25C21.0605 27.25 21.9105 26.922 23.9345 26.112L26.7435 24.989C27.4785 24.7011 28.1832 24.3413 28.8475 23.915C29.072 23.7687 29.2889 23.6111 29.4975 23.443L29.4995 23.441Z" fill="white"/>
</svg>
