<svg width="28" height="28" viewBox="0 0 28 28" fill="none" xmlns="http://www.w3.org/2000/svg">
<path d="M0 6C0 2.68629 2.68629 0 6 0H22C25.3137 0 28 2.68629 28 6V22C28 25.3137 25.3137 28 22 28H6C2.68629 28 0 25.3137 0 22V6Z" fill="#FFF9E5"/>
<path fill-rule="evenodd" clip-rule="evenodd" d="M9.83332 5.45837C9.99908 5.45837 10.1581 5.52422 10.2753 5.64143C10.3925 5.75864 10.4583 5.91761 10.4583 6.08337V6.71921C11.01 6.70837 11.6175 6.70837 12.2867 6.70837H15.7133C16.3825 6.70837 16.99 6.70837 17.5417 6.71921V6.08337C17.5417 5.91761 17.6075 5.75864 17.7247 5.64143C17.8419 5.52422 18.0009 5.45837 18.1667 5.45837C18.3324 5.45837 18.4914 5.52422 18.6086 5.64143C18.7258 5.75864 18.7917 5.91761 18.7917 6.08337V6.77254C19.0083 6.78921 19.2136 6.81032 19.4075 6.83587C20.3842 6.96754 21.175 7.24421 21.7992 7.86754C22.4225 8.49171 22.6992 9.28254 22.8308 10.2592C22.8719 10.5714 22.9017 10.9131 22.92 11.2842C22.9653 11.4072 22.9709 11.5413 22.9358 11.6675C22.9583 12.335 22.9583 13.0942 22.9583 13.9534V15.7134C22.9583 17.245 22.9583 18.4584 22.8308 19.4075C22.6992 20.3842 22.4225 21.175 21.7992 21.7992C21.175 22.4225 20.3842 22.6992 19.4075 22.8309C18.4575 22.9584 17.245 22.9584 15.7133 22.9584H12.2867C10.755 22.9584 9.54166 22.9584 8.59249 22.8309C7.61582 22.6992 6.82499 22.4225 6.20082 21.7992C5.57749 21.175 5.30082 20.3842 5.16916 19.4075C5.04166 18.4575 5.04166 17.245 5.04166 15.7134V13.9534C5.04166 13.0942 5.04166 12.335 5.06416 11.6667C5.02938 11.5403 5.03521 11.4062 5.08082 11.2834C5.0986 10.9128 5.12805 10.5714 5.16916 10.2592C5.30082 9.28254 5.57749 8.49171 6.20082 7.86754C6.82499 7.24421 7.61582 6.96754 8.59249 6.83587C8.78693 6.81032 8.99221 6.78921 9.20832 6.77254V6.08337C9.20832 5.91761 9.27417 5.75864 9.39138 5.64143C9.50859 5.52422 9.66756 5.45837 9.83332 5.45837ZM6.30249 12.125C6.29166 12.6692 6.29166 13.2884 6.29166 14V15.6667C6.29166 17.2559 6.29332 18.385 6.40832 19.2417C6.52082 20.0792 6.73249 20.5625 7.08499 20.915C7.43749 21.2675 7.92082 21.4792 8.75916 21.5917C9.61582 21.7067 10.7442 21.7084 12.3333 21.7084H15.6667C17.2558 21.7084 18.385 21.7067 19.2417 21.5917C20.0792 21.4792 20.5625 21.2675 20.915 20.915C21.2675 20.5625 21.4792 20.0792 21.5917 19.2409C21.7067 18.385 21.7083 17.2559 21.7083 15.6667V14C21.7083 13.2884 21.7083 12.6692 21.6975 12.125H6.30249ZM21.64 10.875H6.35999C6.37332 10.7173 6.38943 10.5673 6.40832 10.425C6.52082 9.58754 6.73249 9.10421 7.08499 8.75171C7.43749 8.39921 7.92082 8.18754 8.75916 8.07504C9.61582 7.96004 10.7442 7.95837 12.3333 7.95837H15.6667C17.2558 7.95837 18.385 7.96004 19.2417 8.07504C20.0792 8.18754 20.5625 8.39921 20.915 8.75171C21.2675 9.10421 21.4792 9.58754 21.5917 10.4259C21.6105 10.5675 21.6267 10.7173 21.64 10.875ZM17.75 17.125C17.5842 17.125 17.4253 17.1909 17.308 17.3081C17.1908 17.4253 17.125 17.5843 17.125 17.75C17.125 17.9158 17.1908 18.0748 17.308 18.192C17.4253 18.3092 17.5842 18.375 17.75 18.375C17.9158 18.375 18.0747 18.3092 18.1919 18.192C18.3091 18.0748 18.375 17.9158 18.375 17.75C18.375 17.5843 18.3091 17.4253 18.1919 17.3081C18.0747 17.1909 17.9158 17.125 17.75 17.125ZM15.875 17.75C15.875 17.5038 15.9235 17.26 16.0177 17.0325C16.1119 16.805 16.2501 16.5983 16.4242 16.4242C16.5983 16.2501 16.805 16.112 17.0325 16.0178C17.2599 15.9235 17.5038 15.875 17.75 15.875C17.9962 15.875 18.24 15.9235 18.4675 16.0178C18.695 16.112 18.9017 16.2501 19.0758 16.4242C19.2499 16.5983 19.388 16.805 19.4823 17.0325C19.5765 17.26 19.625 17.5038 19.625 17.75C19.625 18.2473 19.4274 18.7242 19.0758 19.0759C18.7242 19.4275 18.2473 19.625 17.75 19.625C17.2527 19.625 16.7758 19.4275 16.4242 19.0759C16.0725 18.7242 15.875 18.2473 15.875 17.75Z" fill="#FFD648"/>
</svg>
